<svg width="24" height="24" viewBox="0 0 24 24" fill="none" xmlns="http://www.w3.org/2000/svg">
<rect width="24" height="24" rx="12" fill="#F2EBFF"/>
<path d="M15.6867 9.18001C15.6402 9.17335 15.5931 9.17335 15.5467 9.18001C15.0487 9.16372 14.5768 8.95414 14.2308 8.59571C13.8848 8.23728 13.692 7.75818 13.6933 7.26001C13.6933 6.20001 14.5533 5.33334 15.62 5.33334C16.68 5.33334 17.5467 6.19334 17.5467 7.26001C17.5452 7.7585 17.3507 8.23703 17.0038 8.59506C16.657 8.9531 16.1848 9.16276 15.6867 9.18001ZM17.8613 13.8C17.1147 14.3 16.068 14.4867 15.1013 14.36C15.3547 13.8133 15.488 13.2067 15.4947 12.5667C15.4947 11.9 15.348 11.2667 15.068 10.7133C16.0547 10.58 17.1013 10.7667 17.8547 11.2667C18.908 11.96 18.908 13.1 17.8613 13.8ZM8.29332 9.18001C8.33999 9.17334 8.38666 9.17334 8.43332 9.18001C8.93123 9.16372 9.40322 8.95414 9.7492 8.59571C10.0952 8.23728 10.288 7.75818 10.2867 7.26001C10.2867 7.00743 10.2369 6.75733 10.1403 6.52398C10.0436 6.29063 9.90192 6.07861 9.72333 5.90001C9.54473 5.72141 9.3327 5.57974 9.09935 5.48308C8.866 5.38643 8.6159 5.33668 8.36332 5.33668C8.11075 5.33668 7.86065 5.38643 7.6273 5.48308C7.39395 5.57974 7.18192 5.72141 7.00332 5.90001C6.82472 6.07861 6.68305 6.29063 6.5864 6.52398C6.48974 6.75733 6.43999 7.00743 6.43999 7.26001C6.43999 8.30001 7.25999 9.14668 8.29332 9.18001ZM8.36732 12.5667C8.36732 13.2133 8.50732 13.8267 8.76066 14.38C7.82066 14.48 6.84066 14.28 6.12066 13.8067C5.06732 13.1067 5.06732 11.9667 6.12066 11.2667C6.83399 10.7867 7.84066 10.5933 8.78732 10.7C8.51399 11.26 8.36732 11.8933 8.36732 12.5667ZM12.08 14.58C12.0224 14.5733 11.9642 14.5733 11.9067 14.58C11.3139 14.5601 10.7521 14.3103 10.3403 13.8835C9.92842 13.4567 9.69879 12.8864 9.69999 12.2933C9.70666 11.0267 10.7267 10 12 10C13.2667 10 14.2933 11.0267 14.2933 12.2933C14.293 12.8871 14.0619 13.4575 13.649 13.8842C13.236 14.3108 12.6734 14.5603 12.08 14.58ZM9.91332 15.96C8.90666 16.6333 8.90666 17.74 9.91332 18.4067C11.06 19.1733 12.94 19.1733 14.0867 18.4067C15.0933 17.7333 15.0933 16.6267 14.0867 15.96C12.9467 15.1933 11.0667 15.1933 9.91332 15.96Z" fill="#7758B5"/>
</svg>
