<svg width="20" height="20" viewBox="0 0 20 20" fill="none" xmlns="http://www.w3.org/2000/svg">
<path d="M18.86 6.37L11.93 0.830002C10.86 -0.0299982 9.13002 -0.0299982 8.07002 0.820002L1.14002 6.37C0.360021 6.99 -0.139979 8.3 0.0300209 9.28L1.36002 17.24C1.60002 18.66 2.96002 19.81 4.40002 19.81H15.6C17.03 19.81 18.4 18.65 18.64 17.24L19.97 9.28C20.13 8.3 19.63 6.99 18.86 6.37ZM10 13.5C9.33698 13.5 8.70109 13.2366 8.23225 12.7678C7.76341 12.2989 7.50002 11.663 7.50002 11C7.50002 10.337 7.76341 9.70108 8.23225 9.23223C8.70109 8.76339 9.33698 8.5 10 8.5C10.6631 8.5 11.2989 8.76339 11.7678 9.23223C12.2366 9.70108 12.5 10.337 12.5 11C12.5 11.663 12.2366 12.2989 11.7678 12.7678C11.2989 13.2366 10.6631 13.5 10 13.5Z" fill="currentColor"/>
</svg>
