<svg width="24" height="24" viewBox="0 0 24 24" fill="currentColor" xmlns="http://www.w3.org/2000/svg">
<path d="M16.8 2H14.2C11 2 9 4 9 7.2V11.25H15.25C15.66 11.25 16 11.59 16 12C16 12.41 15.66 12.75 15.25 12.75H9V16.8C9 20 11 22 14.2 22H16.79C19.99 22 21.99 20 21.99 16.8V7.2C22 4 20 2 16.8 2Z" fill="currentColor"/>
<path d="M4.56098 11.25L6.63098 9.18002C6.78098 9.03002 6.85098 8.84001 6.85098 8.65001C6.85098 8.46001 6.78098 8.26001 6.63098 8.12001C6.48984 7.98053 6.29941 7.90231 6.10098 7.90231C5.90255 7.90231 5.71212 7.98053 5.57098 8.12001L2.22098 11.47C1.93098 11.76 1.93098 12.24 2.22098 12.53L5.57098 15.88C5.86098 16.17 6.34098 16.17 6.63098 15.88C6.92098 15.59 6.92098 15.11 6.63098 14.82L4.56098 12.75H9.00098V11.25H4.56098Z" fill="currentColor"/>
</svg>
