<svg width="24" height="24" viewBox="0 0 24 24" fill="none" xmlns="http://www.w3.org/2000/svg">
<rect width="24" height="24" rx="12" fill="#EFFFED"/>
<path d="M10.8333 10.6867C10.8333 11.0467 10.9333 11.1 11.16 11.18L11.5 11.3V10.1667H11.3C11.0467 10.1667 10.8333 10.4 10.8333 10.6867ZM12.5 13.8333H12.7C12.96 13.8333 13.1667 13.6 13.1667 13.3133C13.1667 12.9533 13.0667 12.9 12.84 12.82L12.5 12.7V13.8333Z" fill="#83AD7D"/>
<path d="M17.0533 7.65334L15.6867 9.02001C15.5867 9.12001 15.46 9.16668 15.3333 9.16668C15.2067 9.16668 15.08 9.12001 14.98 9.02001C14.887 8.92592 14.8349 8.79896 14.8349 8.66668C14.8349 8.53439 14.887 8.40743 14.98 8.31334L16.3467 6.94668C15.1733 5.94668 13.66 5.33334 12 5.33334C8.32001 5.33334 5.33334 8.32001 5.33334 12C5.33334 15.68 8.32001 18.6667 12 18.6667C15.68 18.6667 18.6667 15.68 18.6667 12C18.6667 10.34 18.0533 8.82668 17.0533 7.65334ZM13.1667 11.88C13.5933 12.0333 14.1667 12.34 14.1667 13.32C14.1667 14.1533 13.5067 14.84 12.7 14.84H12.5V15.0067C12.5 15.28 12.2733 15.5067 12 15.5067C11.7267 15.5067 11.5 15.28 11.5 15.0067V14.84H11.4467C10.56 14.84 9.83334 14.0933 9.83334 13.1733C9.83334 12.8933 10.06 12.6667 10.3333 12.6667C10.6067 12.6667 10.8333 12.8933 10.8333 13.1667C10.8333 13.5333 11.1067 13.8333 11.4467 13.8333H11.5V12.3533L10.8333 12.12C10.4067 11.9667 9.83334 11.66 9.83334 10.68C9.83334 9.84668 10.4933 9.16001 11.3 9.16001H11.5V9.00001C11.5 8.72668 11.7267 8.50001 12 8.50001C12.2733 8.50001 12.5 8.72668 12.5 9.00001V9.16668H12.5533C13.44 9.16668 14.1667 9.91334 14.1667 10.8333C14.1667 11.1067 13.94 11.3333 13.6667 11.3333C13.3933 11.3333 13.1667 11.1067 13.1667 10.8333C13.1667 10.4667 12.8933 10.1667 12.5533 10.1667H12.5V11.6467L13.1667 11.88ZM19.1267 5.14001C19.074 5.01724 18.9761 4.9194 18.8533 4.86668C18.7934 4.84538 18.7303 4.83412 18.6667 4.83334H16C15.7267 4.83334 15.5 5.06001 15.5 5.33334C15.5 5.60668 15.7267 5.83334 16 5.83334H17.46L16.3467 6.94668C16.6 7.16668 16.8333 7.40001 17.0533 7.65334L18.1667 6.54001V8.00001C18.1667 8.27334 18.3933 8.50001 18.6667 8.50001C18.94 8.50001 19.1667 8.27334 19.1667 8.00001V5.33334C19.1667 5.26668 19.1533 5.20668 19.1267 5.14001Z" fill="#83AD7D"/>
</svg>
