<svg width="24" height="24" viewBox="0 0 24 24" fill="none" xmlns="http://www.w3.org/2000/svg">
<rect width="24" height="24" rx="12" fill="#FFF7F1"/>
<path d="M14.7933 5.33334H9.20667C6.78 5.33334 5.33333 6.78001 5.33333 9.20668V14.7867C5.33333 17.22 6.78 18.6667 9.20667 18.6667H14.7867C17.2133 18.6667 18.66 17.22 18.66 14.7933V9.20668C18.6667 6.78001 17.22 5.33334 14.7933 5.33334ZM15.9 13.4C15.8733 13.46 15.84 13.5133 15.7933 13.56L13.7667 15.5867C13.6667 15.6867 13.54 15.7333 13.4133 15.7333C13.2867 15.7333 13.16 15.6867 13.06 15.5867C12.967 15.4926 12.9149 15.3656 12.9149 15.2333C12.9149 15.1011 12.967 14.9741 13.06 14.88L14.2333 13.7067H8.56667C8.29333 13.7067 8.06667 13.48 8.06667 13.2067C8.06667 12.9333 8.29333 12.7067 8.56667 12.7067H15.44C15.5067 12.7067 15.5667 12.72 15.6333 12.7467C15.7533 12.8 15.8533 12.8933 15.9067 13.02C15.9467 13.14 15.9467 13.28 15.9 13.4ZM15.4333 11.2867H8.56667C8.5 11.2867 8.44 11.2733 8.37333 11.2467C8.25056 11.194 8.15272 11.0961 8.1 10.9733C8.07363 10.9135 8.06001 10.8488 8.06001 10.7833C8.06001 10.7179 8.07363 10.6532 8.1 10.5933C8.12667 10.5333 8.16 10.48 8.20667 10.4333L10.2333 8.40668C10.4267 8.21334 10.7467 8.21334 10.94 8.40668C11.1333 8.60001 11.1333 8.92001 10.94 9.11334L9.77333 10.2867H15.44C15.7133 10.2867 15.94 10.5133 15.94 10.7867C15.94 11.06 15.7133 11.2867 15.4333 11.2867Z" fill="#EBA775"/>
</svg>
