<svg width="16" height="17" viewBox="0 0 16 17" fill="none" xmlns="http://www.w3.org/2000/svg">
<path fill-rule="evenodd" clip-rule="evenodd" d="M12.1497 8.26875C12.1497 8.73124 12.5332 9.11477 12.9957 9.11477C13.4582 9.11477 13.8417 8.73124 13.8417 8.26875V6.01269C13.8417 5.5502 13.4582 5.16667 12.9957 5.16667H10.7396C10.2771 5.16667 9.89361 5.5502 9.89361 6.01269C9.89361 6.47518 10.2771 6.85871 10.7396 6.85871H10.9438L8.38205 9.42047L7.1525 7.57051C7.08381 7.46601 6.99254 7.37826 6.88543 7.31372C6.77833 7.24918 6.6581 7.20949 6.53362 7.19758C6.40913 7.18568 6.28357 7.20185 6.16616 7.24492C6.04876 7.28798 5.94252 7.35684 5.85526 7.44642L2.24557 11.0561C2.08824 11.2153 2 11.4301 2 11.654C2 11.8778 2.08824 12.0926 2.24557 12.2518C2.41478 12.421 2.6291 12.5 2.84343 12.5C3.05775 12.5 3.27208 12.421 3.44128 12.2518L6.31776 9.37535L7.54731 11.2253C7.616 11.3298 7.70726 11.4176 7.81437 11.4821C7.92148 11.5466 8.0417 11.5863 8.16619 11.5982C8.29067 11.6101 8.41624 11.594 8.53364 11.5509C8.65104 11.5078 8.75728 11.439 8.84454 11.3494L12.1497 8.04428V8.26875Z" fill="#83AD7D"/>
</svg>
