<svg width="16" height="17" viewBox="0 0 16 17" fill="none" xmlns="http://www.w3.org/2000/svg">
<path fill-rule="evenodd" clip-rule="evenodd" d="M12.9452 12.4988C12.9602 12.4996 12.9753 12.5 12.9904 12.5C13.2048 12.5 13.4192 12.421 13.5885 12.2517C13.6702 12.17 13.7315 12.075 13.7724 11.9733C13.8139 11.874 13.8368 11.7656 13.8368 11.6524V9.39507C13.8368 8.93233 13.4531 8.54859 12.9904 8.54859C12.5276 8.54859 12.1439 8.93233 12.1439 9.39507V9.61069L8.84825 6.31506C8.67895 6.13448 8.43065 6.04419 8.17106 6.06676C7.92276 6.08933 7.68575 6.22477 7.55031 6.43921L6.32009 8.29018L3.44206 5.41215C3.11476 5.08485 2.57301 5.08485 2.24571 5.41215C2.08828 5.57144 2 5.78637 2 6.01033C2 6.23429 2.08828 6.44922 2.24571 6.60851L5.85735 10.2202C5.94401 10.3102 6.05001 10.3793 6.16733 10.4223C6.28465 10.4654 6.41022 10.4811 6.53454 10.4685C6.78284 10.4459 7.01985 10.3104 7.15529 10.096L8.3855 8.24504L10.9463 10.8059H10.7331C10.2703 10.8059 9.88659 11.1896 9.88659 11.6524C9.88659 12.1151 10.2703 12.4988 10.7331 12.4988H12.9452Z" fill="#FF7D7D"/>
</svg>
